<svg width="53" height="56" viewBox="0 0 53 56" fill="none" xmlns="http://www.w3.org/2000/svg">
<rect x="0.5" y="0.5" width="52" height="55" rx="9.5" stroke="#537FC0"/>
<path d="M39.415 21.1709L33.8288 15.5859C33.643 15.4002 33.4225 15.2528 33.1799 15.1523C32.9372 15.0517 32.6771 15 32.4144 15C32.1517 15 31.8916 15.0517 31.6489 15.1523C31.4062 15.2528 31.1857 15.4002 31 15.5859L15.5863 30.9997C15.3997 31.1847 15.2519 31.405 15.1512 31.6477C15.0506 31.8904 14.9992 32.1507 15 32.4134V37.9997C15 38.5301 15.2107 39.0388 15.5858 39.4139C15.9609 39.789 16.4696 39.9997 17 39.9997H38C38.2652 39.9997 38.5196 39.8943 38.7071 39.7068C38.8947 39.5193 39 39.2649 39 38.9997C39 38.7345 38.8947 38.4801 38.7071 38.2926C38.5196 38.1051 38.2652 37.9997 38 37.9997H25.415L39.415 23.9997C39.6008 23.814 39.7481 23.5935 39.8487 23.3508C39.9492 23.1081 40.001 22.848 40.001 22.5853C40.001 22.3226 39.9492 22.0625 39.8487 21.8198C39.7481 21.5772 39.6008 21.3567 39.415 21.1709ZM35 25.5859L29.415 19.9997L32.415 16.9997L38 22.5859L35 25.5859Z" fill="#537FC0"/>
</svg>
