<svg width="46" height="46" viewBox="0 0 46 46" fill="none" xmlns="http://www.w3.org/2000/svg">
<path d="M40.25 20.7628V37.3749C40.25 38.1374 39.9471 38.8686 39.4079 39.4078C38.8688 39.947 38.1375 40.2499 37.375 40.2499H30.1875C29.425 40.2499 28.6937 39.947 28.1546 39.4078C27.6154 38.8686 27.3125 38.1374 27.3125 37.3749V30.1874C27.3125 29.8061 27.1611 29.4405 26.8915 29.1709C26.6219 28.9013 26.2562 28.7499 25.875 28.7499H20.125C19.7438 28.7499 19.3781 28.9013 19.1085 29.1709C18.839 29.4405 18.6875 29.8061 18.6875 30.1874V37.3749C18.6875 38.1374 18.3846 38.8686 17.8454 39.4078C17.3063 39.947 16.575 40.2499 15.8125 40.2499H8.625C7.8625 40.2499 7.13123 39.947 6.59207 39.4078C6.0529 38.8686 5.75 38.1374 5.75 37.3749V20.7628C5.74994 20.3649 5.83248 19.9713 5.99238 19.6069C6.15229 19.2426 6.38609 18.9154 6.67898 18.646L21.054 5.08323L21.0737 5.06347C21.603 4.58214 22.2927 4.31543 23.0081 4.31543C23.7235 4.31543 24.4132 4.58214 24.9424 5.06347C24.9486 5.0705 24.9552 5.0771 24.9622 5.08323L39.3372 18.646C39.6271 18.9168 39.8579 19.2446 40.015 19.6089C40.1721 19.9732 40.2521 20.3661 40.25 20.7628Z" fill="#949494"/>
</svg>
