<svg width="53" height="56" viewBox="0 0 53 56" fill="none" xmlns="http://www.w3.org/2000/svg">
<rect x="0.5" y="0.5" width="52" height="55" rx="9.5" stroke="#537FC0"/>
<path d="M39 19C39 19.2652 38.8946 19.5196 38.7071 19.7071C38.5196 19.8946 38.2652 20 38 20H37V38C37 38.5304 36.7893 39.0391 36.4142 39.4142C36.0391 39.7893 35.5304 40 35 40H19C18.4696 40 17.9609 39.7893 17.5858 39.4142C17.2107 39.0391 17 38.5304 17 38V20H16C15.7348 20 15.4804 19.8946 15.2929 19.7071C15.1054 19.5196 15 19.2652 15 19C15 18.7348 15.1054 18.4804 15.2929 18.2929C15.4804 18.1054 15.7348 18 16 18H38C38.2652 18 38.5196 18.1054 38.7071 18.2929C38.8946 18.4804 39 18.7348 39 19ZM22 16H32C32.2652 16 32.5196 15.8946 32.7071 15.7071C32.8946 15.5196 33 15.2652 33 15C33 14.7348 32.8946 14.4804 32.7071 14.2929C32.5196 14.1054 32.2652 14 32 14H22C21.7348 14 21.4804 14.1054 21.2929 14.2929C21.1054 14.4804 21 14.7348 21 15C21 15.2652 21.1054 15.5196 21.2929 15.7071C21.4804 15.8946 21.7348 16 22 16Z" fill="#537FC0"/>
</svg>
