<svg width="46" height="33" viewBox="0 0 46 33" fill="none" xmlns="http://www.w3.org/2000/svg">
<path d="M29.6667 30.182C29.8106 30.4288 29.8923 30.7144 29.903 31.0087C29.9137 31.303 29.8531 31.5951 29.7276 31.8541C29.6021 32.1131 29.4164 32.3295 29.19 32.4802C28.9636 32.631 28.705 32.7106 28.4415 32.7106H1.46268C1.19918 32.7106 0.940573 32.631 0.714192 32.4802C0.48781 32.3295 0.302059 32.1131 0.176561 31.8541C0.051064 31.5951 -0.0095186 31.303 0.00121418 31.0087C0.011947 30.7144 0.0935965 30.4288 0.237537 30.182C2.29671 26.6389 5.32554 23.9349 8.87208 22.4737C6.91147 21.0146 5.42297 18.889 4.62667 16.411C3.83037 13.9331 3.76856 11.2345 4.45038 8.71428C5.1322 6.19405 6.52145 3.98601 8.41269 2.41666C10.3039 0.847322 12.5968 0 14.9521 0C17.3074 0 19.6003 0.847322 21.4915 2.41666C23.3827 3.98601 24.772 6.19405 25.4538 8.71428C26.1356 11.2345 26.0738 13.9331 25.2775 16.411C24.4812 18.889 22.9927 21.0146 21.0321 22.4737C24.5787 23.9349 27.6075 26.6389 29.6667 30.182ZM45.7417 30.1514C43.682 26.6231 40.6599 23.9308 37.1236 22.4737C39.4382 20.7308 41.0716 18.0675 41.6915 15.0257C42.3113 11.984 41.871 8.79253 40.46 6.10095C39.0491 3.40937 36.7737 1.41998 34.0969 0.537729C31.42 -0.344524 28.5431 -0.0533298 26.0516 1.35204C25.9563 1.40703 25.873 1.48476 25.8076 1.57973C25.7422 1.6747 25.6962 1.78459 25.673 1.9016C25.6498 2.01862 25.6499 2.13991 25.6733 2.25689C25.6967 2.37386 25.7428 2.48366 25.8084 2.5785C27.661 5.16185 28.725 8.34049 28.8444 11.6488C28.9639 14.9571 28.1325 18.2213 26.4721 20.9631C26.3648 21.1423 26.3252 21.3617 26.3618 21.5734C26.3985 21.7851 26.5084 21.972 26.6678 22.0935C28.8326 23.7825 30.6859 25.9222 32.1261 28.3955C32.7069 29.3899 32.9442 30.5866 32.7935 31.7621C32.7766 31.8791 32.7826 31.9987 32.8111 32.1128C32.8396 32.2269 32.8899 32.3328 32.9586 32.423C33.0273 32.5132 33.1127 32.5856 33.2089 32.6353C33.3051 32.6849 33.4098 32.7106 33.5158 32.7106H44.5421C44.8643 32.7107 45.1774 32.592 45.433 32.3728C45.6886 32.1536 45.8723 31.8463 45.9556 31.4984C46.0065 31.2697 46.0137 31.0315 45.9769 30.7995C45.94 30.5674 45.8599 30.3466 45.7417 30.1514Z" fill="#949494"/>
</svg>
