<svg width="65" height="65" viewBox="0 0 65 65" fill="none" xmlns="http://www.w3.org/2000/svg">
<path d="M45.6719 29.625C45.6719 32.3105 44.8755 34.9357 43.3836 37.1686C41.8916 39.4015 39.771 41.1419 37.2899 42.1696C34.8088 43.1972 32.0787 43.4661 29.4448 42.9422C26.8109 42.4183 24.3915 41.1251 22.4926 39.2262C20.5936 37.3273 19.3005 34.9079 18.7765 32.274C18.2526 29.6401 18.5215 26.91 19.5492 24.4289C20.5769 21.9478 22.3173 19.8272 24.5502 18.3352C26.7831 16.8432 29.4083 16.0469 32.0938 16.0469C35.6937 16.051 39.1449 17.4828 41.6904 20.0283C44.2359 22.5738 45.6678 26.0251 45.6719 29.625ZM64.1875 32.0938C64.1875 38.4413 62.3052 44.6463 58.7787 49.9241C55.2522 55.2019 50.2399 59.3154 44.3755 61.7445C38.5111 64.1736 32.0582 64.8092 25.8326 63.5708C19.607 62.3325 13.8884 59.2759 9.40006 54.7875C4.91166 50.2991 1.85503 44.5805 0.616687 38.3549C-0.621658 32.1294 0.0139057 25.6764 2.44301 19.812C4.87211 13.9476 8.98564 8.93528 14.2634 5.40877C19.5412 1.88227 25.7462 0 32.0938 0C40.6028 0.00898569 48.7607 3.39317 54.7775 9.40997C60.7943 15.4268 64.1785 23.5847 64.1875 32.0938ZM59.25 32.0938C59.2461 28.4386 58.505 24.8217 57.0712 21.4595C55.6373 18.0973 53.5401 15.0587 50.905 12.5256C48.2699 9.9925 45.1511 8.01682 41.7349 6.71673C38.3187 5.41664 34.6754 4.81885 31.0229 4.9591C16.4882 5.52074 4.8974 17.6269 4.93751 32.1709C4.95145 38.7919 7.39337 45.1777 11.8006 50.1187C13.5955 47.5154 15.8754 45.2826 18.5156 43.5426C18.7407 43.3939 19.0083 43.3231 19.2775 43.3409C19.5467 43.3587 19.8026 43.4643 20.0061 43.6413C23.3611 46.5432 27.6487 48.1402 32.0845 48.1402C36.5203 48.1402 40.8079 46.5432 44.1629 43.6413C44.3664 43.4643 44.6223 43.3587 44.8915 43.3409C45.1607 43.3231 45.4283 43.3939 45.6534 43.5426C48.2969 45.2817 50.5801 47.5146 52.3776 50.1187C56.8067 45.1597 59.2533 38.7427 59.25 32.0938Z" fill="#004AAD"/>
</svg>
