<svg width="56" height="56" viewBox="0 0 56 56" fill="none" xmlns="http://www.w3.org/2000/svg">
<path d="M52.5 33.25C52.5004 31.6389 52.056 30.059 51.2158 28.6844C50.3756 27.3098 49.1722 26.1938 47.7383 25.4595C46.3043 24.7252 44.6954 24.401 43.0889 24.5227C41.4825 24.6445 39.9408 25.2073 38.6339 26.1493C37.3269 27.0913 36.3054 28.3758 35.6819 29.8614C35.0584 31.3469 34.8571 32.9757 35.1002 34.5683C35.3434 36.1609 36.0215 37.6555 37.0599 38.8873C38.0982 40.1191 39.4565 41.0403 40.985 41.5494C40.6883 42.9162 39.9327 44.1403 38.8439 45.0182C37.7551 45.8961 36.3986 46.3749 35 46.375H29.75C28.1255 46.375 26.5676 45.7297 25.419 44.581C24.2703 43.4324 23.625 41.8745 23.625 40.25V32.1344C30.5659 30.87 35.875 24.6772 35.875 17.3184V8.75C35.875 8.17547 35.7618 7.60656 35.542 7.07576C35.3221 6.54496 34.9998 6.06266 34.5936 5.65641C34.1873 5.25015 33.705 4.92789 33.1742 4.70803C32.6434 4.48816 32.0745 4.375 31.5 4.375H28C27.3038 4.375 26.6361 4.65156 26.1438 5.14384C25.6516 5.63613 25.375 6.30381 25.375 7C25.375 7.69619 25.6516 8.36387 26.1438 8.85616C26.6361 9.34844 27.3038 9.625 28 9.625H30.625V17.3184C30.625 22.6559 26.3659 27.0572 21.1291 27.125C19.8543 27.1421 18.5888 26.9058 17.4061 26.4297C16.2234 25.9537 15.1471 25.2474 14.2396 24.3519C13.3321 23.4565 12.6116 22.3896 12.1198 21.2134C11.6281 20.0371 11.3749 18.7749 11.375 17.5V9.625H14C14.6962 9.625 15.3639 9.34844 15.8562 8.85616C16.3484 8.36387 16.625 7.69619 16.625 7C16.625 6.30381 16.3484 5.63613 15.8562 5.14384C15.3639 4.65156 14.6962 4.375 14 4.375H10.5C9.33968 4.375 8.22688 4.83594 7.40641 5.65641C6.58594 6.47688 6.125 7.58968 6.125 8.75V17.5C6.12514 20.9897 7.35222 24.3683 9.59159 27.0447C11.831 29.7212 14.94 31.5251 18.375 32.1409V40.25C18.3785 43.2658 19.578 46.157 21.7105 48.2895C23.843 50.422 26.7342 51.6215 29.75 51.625H35C37.7778 51.6217 40.4586 50.6032 42.5378 48.7612C44.6171 46.9193 45.9514 44.3809 46.2897 41.6237C48.0847 41.0764 49.6568 39.9675 50.7747 38.4602C51.8926 36.9529 52.4973 35.1266 52.5 33.25ZM43.75 36.75C43.0578 36.75 42.3811 36.5447 41.8055 36.1601C41.2299 35.7756 40.7813 35.2289 40.5164 34.5894C40.2515 33.9499 40.1822 33.2461 40.3173 32.5672C40.4523 31.8883 40.7856 31.2646 41.2751 30.7751C41.7646 30.2856 42.3883 29.9523 43.0672 29.8173C43.7461 29.6822 44.4499 29.7515 45.0894 30.0164C45.7289 30.2813 46.2756 30.7299 46.6601 31.3055C47.0447 31.8811 47.25 32.5578 47.25 33.25C47.25 34.1783 46.8812 35.0685 46.2249 35.7249C45.5685 36.3812 44.6783 36.75 43.75 36.75Z" fill="#949494"/>
</svg>
