<svg width="46" height="46" viewBox="0 0 46 46" fill="none" xmlns="http://www.w3.org/2000/svg">
<path d="M38.8125 11.5H31.625V10.0625C31.625 8.91875 31.1706 7.82185 30.3619 7.0131C29.5531 6.20435 28.4562 5.75 27.3125 5.75H18.6875C17.5438 5.75 16.4469 6.20435 15.6381 7.0131C14.8294 7.82185 14.375 8.91875 14.375 10.0625V11.5H7.1875C6.425 11.5 5.69373 11.8029 5.15457 12.3421C4.6154 12.8812 4.3125 13.6125 4.3125 14.375V37.375C4.3125 38.1375 4.6154 38.8688 5.15457 39.4079C5.69373 39.9471 6.425 40.25 7.1875 40.25H38.8125C39.575 40.25 40.3063 39.9471 40.8454 39.4079C41.3846 38.8688 41.6875 38.1375 41.6875 37.375V14.375C41.6875 13.6125 41.3846 12.8812 40.8454 12.3421C40.3063 11.8029 39.575 11.5 38.8125 11.5ZM27.3125 27.3125H24.4375V30.1875C24.4375 30.5687 24.2861 30.9344 24.0165 31.204C23.7469 31.4736 23.3812 31.625 23 31.625C22.6188 31.625 22.2531 31.4736 21.9835 31.204C21.714 30.9344 21.5625 30.5687 21.5625 30.1875V27.3125H18.6875C18.3063 27.3125 17.9406 27.1611 17.671 26.8915C17.4015 26.6219 17.25 26.2562 17.25 25.875C17.25 25.4938 17.4015 25.1281 17.671 24.8585C17.9406 24.5889 18.3063 24.4375 18.6875 24.4375H21.5625V21.5625C21.5625 21.1813 21.714 20.8156 21.9835 20.546C22.2531 20.2765 22.6188 20.125 23 20.125C23.3812 20.125 23.7469 20.2765 24.0165 20.546C24.2861 20.8156 24.4375 21.1813 24.4375 21.5625V24.4375H27.3125C27.6937 24.4375 28.0594 24.5889 28.329 24.8585C28.5986 25.1281 28.75 25.4938 28.75 25.875C28.75 26.2562 28.5986 26.6219 28.329 26.8915C28.0594 27.1611 27.6937 27.3125 27.3125 27.3125ZM28.75 11.5H17.25V10.0625C17.25 9.68125 17.4015 9.31562 17.671 9.04603C17.9406 8.77645 18.3063 8.625 18.6875 8.625H27.3125C27.6937 8.625 28.0594 8.77645 28.329 9.04603C28.5986 9.31562 28.75 9.68125 28.75 10.0625V11.5Z" fill="#004AAD"/>
</svg>
