<svg width="46" height="30" viewBox="0 0 46 30" fill="none" xmlns="http://www.w3.org/2000/svg">
<path d="M29.5532 27.1527C29.6946 27.3696 29.7749 27.6207 29.7854 27.8794C29.796 28.1381 29.7364 28.3949 29.6131 28.6226C29.4898 28.8503 29.3073 29.0404 29.0848 29.1729C28.8624 29.3055 28.6082 29.3754 28.3493 29.3755H1.8382C1.57927 29.3754 1.32515 29.3055 1.10269 29.1729C0.880232 29.0404 0.697701 28.8503 0.574379 28.6226C0.451058 28.3949 0.391525 28.1381 0.402072 27.8794C0.412619 27.6207 0.492853 27.3696 0.634297 27.1527C2.65777 24.0381 5.63409 21.6612 9.11914 20.3767C7.19253 19.0941 5.72982 17.2255 4.94733 15.0473C4.16484 12.8691 4.1041 10.4968 4.7741 8.28142C5.4441 6.066 6.80926 4.12501 8.66772 2.74547C10.5262 1.36594 12.7792 0.621094 15.0937 0.621094C17.4083 0.621094 19.6613 1.36594 21.5198 2.74547C23.3782 4.12501 24.7434 6.066 25.4134 8.28142C26.0834 10.4968 26.0227 12.8691 25.2402 15.0473C24.4577 17.2255 22.995 19.0941 21.0684 20.3767C24.5534 21.6612 27.5297 24.0381 29.5532 27.1527ZM45.3495 27.1258C43.3255 24.0242 40.3558 21.6576 36.8809 20.3767C39.1553 18.8446 40.7605 16.5034 41.3696 13.8295C41.9787 11.1557 41.5459 8.3502 40.1595 5.98416C38.773 3.61811 36.537 1.86933 33.9066 1.09379C31.2762 0.318239 28.4491 0.574214 26.0008 1.80961C25.9072 1.85795 25.8253 1.92628 25.761 2.00976C25.6968 2.09324 25.6516 2.18984 25.6288 2.29271C25.606 2.39557 25.6061 2.50219 25.6291 2.60502C25.6521 2.70785 25.6974 2.80436 25.7618 2.88773C27.5823 5.15864 28.6279 7.95284 28.7452 10.861C28.8626 13.7692 28.0457 16.6386 26.4141 19.0488C26.3086 19.2063 26.2696 19.3991 26.3056 19.5852C26.3417 19.7713 26.4497 19.9357 26.6063 20.0425C28.7336 21.5272 30.5548 23.4081 31.97 25.5823C32.5408 26.4564 32.7739 27.5083 32.6259 28.5417C32.6092 28.6445 32.6151 28.7497 32.6431 28.85C32.6711 28.9503 32.7206 29.0433 32.7881 29.1226C32.8556 29.2019 32.9395 29.2656 33.034 29.3093C33.1286 29.3529 33.2315 29.3755 33.3356 29.3755H44.1708C44.4873 29.3756 44.795 29.2712 45.0462 29.0785C45.2973 28.8858 45.4779 28.6157 45.5598 28.3099C45.6097 28.1088 45.6168 27.8995 45.5806 27.6955C45.5444 27.4915 45.4657 27.2974 45.3495 27.1258Z" fill="#004AAD"/>
</svg>
