<svg width="79" height="79" viewBox="0 0 79 79" fill="none" xmlns="http://www.w3.org/2000/svg">
<path d="M53.0781 37.0312C53.0781 39.7167 52.2818 42.3419 50.7898 44.5749C49.2978 46.8078 47.1772 48.5481 44.6961 49.5758C42.2151 50.6035 39.485 50.8724 36.8511 50.3485C34.2172 49.8246 31.7978 48.5314 29.8988 46.6324C27.9999 44.7335 26.7067 42.3141 26.1828 39.6802C25.6589 37.0463 25.9278 34.3162 26.9555 31.8351C27.9832 29.354 29.7235 27.2334 31.9564 25.7415C34.1893 24.2495 36.8145 23.4531 39.5 23.4531C43.0999 23.4572 46.5512 24.8891 49.0967 27.4346C51.6422 29.9801 53.0741 33.4314 53.0781 37.0312ZM71.5938 39.5C71.5938 45.8475 69.7115 52.0525 66.185 57.3303C62.6585 62.6081 57.6461 66.7217 51.7818 69.1508C45.9174 71.5799 39.4644 72.2154 33.2388 70.9771C27.0133 69.7387 21.2947 66.6821 16.8063 62.1937C12.3179 57.7053 9.26128 51.9868 8.02294 45.7612C6.78459 39.5356 7.42016 33.0826 9.84926 27.2183C12.2784 21.3539 16.3919 16.3415 21.6697 12.815C26.9475 9.28852 33.1525 7.40625 39.5 7.40625C48.009 7.41524 56.167 10.7994 62.1838 16.8162C68.2006 22.833 71.5848 30.991 71.5938 39.5ZM66.6563 39.5C66.6523 35.8448 65.9113 32.228 64.4774 28.8657C63.0436 25.5035 60.9464 22.465 58.3113 19.9319C55.6762 17.3987 52.5573 15.4231 49.1411 14.123C45.725 12.8229 42.0817 12.2251 38.4292 12.3654C23.8944 12.927 12.3036 25.0331 12.3438 39.5771C12.3577 46.1981 14.7996 52.584 19.2069 57.525C21.0017 54.9217 23.2817 52.6889 25.9219 50.9488C26.147 50.8002 26.4146 50.7293 26.6838 50.7471C26.953 50.765 27.2089 50.8705 27.4124 51.0476C30.7674 53.9494 35.0549 55.5464 39.4908 55.5464C43.9266 55.5464 48.2142 53.9494 51.5691 51.0476C51.7726 50.8705 52.0286 50.765 52.2977 50.7471C52.5669 50.7293 52.8345 50.8002 53.0596 50.9488C55.7032 52.688 57.9863 54.9208 59.7839 57.525C64.2129 52.566 66.6596 46.1489 66.6563 39.5Z" fill="#004AAD"/>
</svg>
