<svg width="46" height="46" viewBox="0 0 46 46" fill="none" xmlns="http://www.w3.org/2000/svg">
<path d="M43.125 19.4062C43.125 20.4013 42.8299 21.3741 42.2771 22.2015C41.7242 23.0288 40.9385 23.6737 40.0191 24.0545C39.0998 24.4353 38.0882 24.535 37.1122 24.3408C36.1362 24.1467 35.2398 23.6675 34.5361 22.9639C33.8325 22.2602 33.3533 21.3638 33.1592 20.3878C32.965 19.4118 33.0647 18.4002 33.4455 17.4809C33.8263 16.5615 34.4712 15.7758 35.2985 15.2229C36.1259 14.6701 37.0987 14.375 38.0938 14.375C39.4281 14.375 40.7078 14.9051 41.6514 15.8486C42.5949 16.7922 43.125 18.0719 43.125 19.4062ZM12.9375 19.4062C12.9375 18.4112 12.6424 17.4384 12.0896 16.611C11.5367 15.7837 10.751 15.1388 9.83163 14.758C8.91229 14.3772 7.90067 14.2775 6.9247 14.4717C5.94874 14.6658 5.05225 15.145 4.34862 15.8486C3.64499 16.5523 3.16581 17.4487 2.97168 18.4247C2.77754 19.4007 2.87718 20.4123 3.25798 21.3316C3.63879 22.251 4.28365 23.0367 5.11104 23.5896C5.93842 24.1424 6.91117 24.4375 7.90625 24.4375C9.24062 24.4375 10.5203 23.9074 11.4639 22.9639C12.4074 22.0203 12.9375 20.7406 12.9375 19.4062ZM16.5313 15.8125C17.5263 15.8125 18.4991 15.5174 19.3265 14.9646C20.1539 14.4117 20.7987 13.626 21.1795 12.7066C21.5603 11.7873 21.66 10.7757 21.4658 9.7997C21.2717 8.82374 20.7925 7.92725 20.0889 7.22362C19.3853 6.51999 18.4888 6.04081 17.5128 5.84668C16.5368 5.65254 15.5252 5.75218 14.6059 6.13298C13.6865 6.51379 12.9008 7.15865 12.3479 7.98604C11.7951 8.81342 11.5 9.78616 11.5 10.7813C11.5 12.1156 12.0301 13.3953 12.9736 14.3389C13.9172 15.2824 15.1969 15.8125 16.5313 15.8125ZM29.4688 15.8125C30.4638 15.8125 31.4366 15.5174 32.264 14.9646C33.0914 14.4117 33.7362 13.626 34.117 12.7066C34.4978 11.7873 34.5975 10.7757 34.4033 9.7997C34.2092 8.82374 33.73 7.92725 33.0264 7.22362C32.3228 6.51999 31.4263 6.04081 30.4503 5.84668C29.4743 5.65254 28.4627 5.75218 27.5434 6.13298C26.624 6.51379 25.8383 7.15865 25.2854 7.98604C24.7326 8.81342 24.4375 9.78616 24.4375 10.7813C24.4375 12.1156 24.9676 13.3953 25.9111 14.3389C26.8547 15.2824 28.1344 15.8125 29.4688 15.8125ZM33.6231 26.7483C32.893 26.3455 32.2494 25.8026 31.7292 25.1508C31.2091 24.499 30.8226 23.751 30.5918 22.9497C30.1138 21.306 29.1153 19.8618 27.7463 18.8342C26.3773 17.8066 24.7118 17.251 23 17.251C21.2882 17.251 19.6227 17.8066 18.2537 18.8342C16.8847 19.8618 15.8862 21.306 15.4082 22.9497C14.9465 24.5621 13.8641 25.9256 12.3984 26.7411C10.9924 27.5019 9.88017 28.7097 9.23761 30.1736C8.59504 31.6374 8.45884 33.2737 8.85055 34.8236C9.24226 36.3735 10.1395 37.7486 11.4004 38.7314C12.6613 39.7142 14.2138 40.2486 15.8125 40.25C16.7705 40.2528 17.7192 40.0614 18.6013 39.6876C21.4135 38.5278 24.5704 38.5278 27.3826 39.6876C29.0859 40.4284 31.01 40.481 32.7512 39.8344C34.4925 39.1878 35.9159 37.8922 36.7229 36.2191C37.5299 34.5461 37.6579 32.6256 37.08 30.8603C36.5021 29.095 35.2632 27.622 33.6231 26.7501V26.7483Z" fill="#004AAD"/>
</svg>
