<svg width="67" height="67" viewBox="0 0 67 67" fill="none" xmlns="http://www.w3.org/2000/svg">
<path d="M61.3735 29.9354L49.57 40.2366L53.1058 55.5733C53.2929 56.3751 53.2395 57.2142 52.9523 57.9858C52.6651 58.7574 52.1568 59.4272 51.491 59.9114C50.8252 60.3957 50.0314 60.673 49.2089 60.7086C48.3863 60.7442 47.5716 60.5365 46.8664 60.1115L33.49 51.9982L20.1423 60.1115C19.4372 60.5365 18.6224 60.7442 17.7999 60.7086C16.9773 60.673 16.1835 60.3957 15.5177 59.9114C14.8519 59.4272 14.3436 58.7574 14.0564 57.9858C13.7692 57.2142 13.7158 56.3751 13.9029 55.5733L17.4335 40.2523L5.6274 29.9354C5.00296 29.3968 4.55143 28.6859 4.32942 27.8917C4.10742 27.0976 4.12482 26.2555 4.37945 25.4712C4.63409 24.6869 5.11461 23.9953 5.76077 23.483C6.40693 22.9707 7.18996 22.6606 8.01166 22.5915L23.5735 21.2437L29.6479 6.75493C29.9652 5.99468 30.5002 5.34528 31.1858 4.8885C31.8713 4.43172 32.6767 4.18799 33.5005 4.18799C34.3242 4.18799 35.1296 4.43172 35.8151 4.8885C36.5007 5.34528 37.0357 5.99468 37.353 6.75493L43.4458 21.2437L59.0023 22.5915C59.824 22.6606 60.6071 22.9707 61.2532 23.483C61.8994 23.9953 62.3799 24.6869 62.6345 25.4712C62.8892 26.2555 62.9066 27.0976 62.6846 27.8917C62.4626 28.6859 62.011 29.3968 61.3866 29.9354H61.3735Z" fill="white"/>
</svg>
