<svg width="74" height="74" viewBox="0 0 74 74" fill="none" xmlns="http://www.w3.org/2000/svg">
<path d="M69.375 31.2188C69.375 32.8195 68.9003 34.3844 68.011 35.7154C67.1216 37.0464 65.8575 38.0838 64.3786 38.6964C62.8997 39.309 61.2723 39.4693 59.7022 39.157C58.1322 38.8447 56.69 38.0738 55.5581 36.9419C54.4262 35.81 53.6553 34.3678 53.343 32.7978C53.0307 31.2277 53.191 29.6003 53.8036 28.1214C54.4162 26.6425 55.4536 25.3784 56.7846 24.489C58.1156 23.5997 59.6805 23.125 61.2812 23.125C63.4278 23.125 65.4865 23.9777 67.0044 25.4956C68.5223 27.0135 69.375 29.0722 69.375 31.2188ZM20.8125 31.2188C20.8125 29.618 20.3378 28.0531 19.4485 26.7221C18.5591 25.3911 17.295 24.3537 15.8161 23.7411C14.3372 23.1285 12.7098 22.9682 11.1397 23.2805C9.56971 23.5928 8.12754 24.3637 6.99561 25.4956C5.86368 26.6275 5.09282 28.0697 4.78052 29.6397C4.46822 31.2098 4.62851 32.8372 5.2411 34.3161C5.8537 35.795 6.8911 37.0591 8.22211 37.9485C9.55312 38.8378 11.118 39.3125 12.7188 39.3125C14.8653 39.3125 16.924 38.4598 18.4419 36.9419C19.9598 35.424 20.8125 33.3653 20.8125 31.2188ZM26.5938 25.4375C28.1945 25.4375 29.7594 24.9628 31.0904 24.0735C32.4214 23.1841 33.4588 21.92 34.0714 20.4411C34.684 18.9622 34.8443 17.3348 34.532 15.7647C34.2197 14.1947 33.4488 12.7525 32.3169 11.6206C31.185 10.4887 29.7428 9.71782 28.1728 9.40552C26.6027 9.09322 24.9753 9.25351 23.4964 9.8661C22.0175 10.4787 20.7534 11.5161 19.864 12.8471C18.9747 14.1781 18.5 15.743 18.5 17.3438C18.5 19.4903 19.3527 21.549 20.8706 23.0669C22.3885 24.5848 24.4472 25.4375 26.5938 25.4375ZM47.4062 25.4375C49.007 25.4375 50.5719 24.9628 51.9029 24.0735C53.2339 23.1841 54.2713 21.92 54.8839 20.4411C55.4965 18.9622 55.6568 17.3348 55.3445 15.7647C55.0322 14.1947 54.2613 12.7525 53.1294 11.6206C51.9975 10.4887 50.5553 9.71782 48.9853 9.40552C47.4152 9.09322 45.7878 9.25351 44.3089 9.8661C42.83 10.4787 41.5659 11.5161 40.6765 12.8471C39.7872 14.1781 39.3125 15.743 39.3125 17.3438C39.3125 19.4903 40.1652 21.549 41.6831 23.0669C43.201 24.5848 45.2597 25.4375 47.4062 25.4375ZM54.0894 43.0298C52.9148 42.3818 51.8794 41.5086 51.0427 40.46C50.2059 39.4115 49.5841 38.2082 49.2129 36.9191C48.444 34.2749 46.8377 31.9516 44.6354 30.2985C42.4331 28.6454 39.7537 27.7516 37 27.7516C34.2463 27.7516 31.5669 28.6454 29.3646 30.2985C27.1623 31.9516 25.556 34.2749 24.7871 36.9191C24.0444 39.513 22.3031 41.7065 19.9453 43.0183C17.6835 44.2422 15.8942 46.1852 14.8605 48.5401C13.8268 50.895 13.6077 53.5272 14.2378 56.0206C14.868 58.5139 16.3114 60.7261 18.3398 62.3071C20.3682 63.8881 22.8658 64.7477 25.4375 64.75C26.9787 64.7544 28.5048 64.4467 29.9237 63.8452C34.4478 61.9795 39.5262 61.9795 44.0502 63.8452C46.7904 65.037 49.8856 65.1216 52.6868 64.0814C55.488 63.0412 57.7778 60.9569 59.076 58.2656C60.3742 55.5742 60.58 52.4847 59.6504 49.6449C58.7208 46.8051 56.7278 44.4354 54.0894 43.0327V43.0298Z" fill="white"/>
</svg>
