<svg width="51" height="56" viewBox="0 0 51 56" fill="none" xmlns="http://www.w3.org/2000/svg">
<rect x="0.5" y="0.5" width="50" height="55" rx="9.5" stroke="#537FC0"/>
<path d="M38.415 21.1709L32.8288 15.5859C32.643 15.4002 32.4225 15.2528 32.1799 15.1523C31.9372 15.0517 31.6771 15 31.4144 15C31.1517 15 30.8916 15.0517 30.6489 15.1523C30.4062 15.2528 30.1857 15.4002 30 15.5859L14.5863 30.9997C14.3997 31.1847 14.2519 31.405 14.1512 31.6477C14.0506 31.8904 13.9992 32.1507 14 32.4134V37.9997C14 38.5301 14.2107 39.0388 14.5858 39.4139C14.9609 39.789 15.4696 39.9997 16 39.9997H37C37.2652 39.9997 37.5196 39.8943 37.7071 39.7068C37.8947 39.5193 38 39.2649 38 38.9997C38 38.7345 37.8947 38.4801 37.7071 38.2926C37.5196 38.1051 37.2652 37.9997 37 37.9997H24.415L38.415 23.9997C38.6008 23.814 38.7481 23.5935 38.8487 23.3508C38.9492 23.1081 39.001 22.848 39.001 22.5853C39.001 22.3226 38.9492 22.0625 38.8487 21.8198C38.7481 21.5772 38.6008 21.3567 38.415 21.1709ZM34 25.5859L28.415 19.9997L31.415 16.9997L37 22.5859L34 25.5859Z" fill="#537FC0"/>
</svg>
