<svg width="80" height="80" viewBox="0 0 80 80" fill="none" xmlns="http://www.w3.org/2000/svg">
<path d="M39.8125 0C31.9383 0 24.241 2.33496 17.6939 6.70962C11.1467 11.0843 6.04388 17.3021 3.03056 24.5769C0.0172501 31.8517 -0.77117 39.8567 0.765004 47.5795C2.30118 55.3024 6.09295 62.3963 11.6608 67.9642C17.2287 73.5321 24.3226 77.3238 32.0455 78.86C39.7684 80.3962 47.7733 79.6078 55.0481 76.5945C62.3229 73.5811 68.5407 68.4783 72.9154 61.9311C77.2901 55.384 79.625 47.6867 79.625 39.8125C79.6139 29.257 75.4158 19.137 67.9519 11.6731C60.488 4.20924 50.368 0.0111468 39.8125 0ZM39.8125 73.5C33.1498 73.5 26.6366 71.5243 21.0967 67.8226C15.5569 64.121 11.2391 58.8597 8.68933 52.7042C6.1396 46.5486 5.47247 39.7751 6.77231 33.2404C8.07215 26.7057 11.2806 20.7031 15.9919 15.9918C20.7031 11.2806 26.7057 8.07214 33.2404 6.7723C39.7751 5.47246 46.5486 6.13958 52.7042 8.68931C58.8598 11.239 64.121 15.5568 67.8227 21.0967C71.5243 26.6366 73.5 33.1497 73.5 39.8125C73.4899 48.7439 69.9374 57.3065 63.622 63.622C57.3066 69.9374 48.7439 73.4899 39.8125 73.5ZM64.3125 39.8125C64.3125 40.6247 63.9899 41.4037 63.4155 41.978C62.8412 42.5523 62.0622 42.875 61.25 42.875H39.8125C39.0003 42.875 38.2213 42.5523 37.647 41.978C37.0727 41.4037 36.75 40.6247 36.75 39.8125V18.375C36.75 17.5628 37.0727 16.7838 37.647 16.2095C38.2213 15.6352 39.0003 15.3125 39.8125 15.3125C40.6247 15.3125 41.4037 15.6352 41.978 16.2095C42.5524 16.7838 42.875 17.5628 42.875 18.375V36.75H61.25C62.0622 36.75 62.8412 37.0727 63.4155 37.647C63.9899 38.2213 64.3125 39.0003 64.3125 39.8125Z" fill="white"/>
</svg>
