<svg width="46" height="46" viewBox="0 0 46 46" fill="none" xmlns="http://www.w3.org/2000/svg">
<path d="M23 12.3846C20.9005 12.3846 18.8481 13.0072 17.1024 14.1736C15.3567 15.3401 13.9961 16.998 13.1927 18.9377C12.3892 20.8774 12.179 23.0118 12.5886 25.071C12.9982 27.1301 14.0092 29.0216 15.4938 30.5062C16.9784 31.9908 18.8699 33.0018 20.929 33.4114C22.9882 33.821 25.1226 33.6108 27.0623 32.8073C29.002 32.0039 30.6599 30.6433 31.8264 28.8976C32.9928 27.1519 33.6154 25.0995 33.6154 23C33.6125 20.1855 32.4931 17.4872 30.503 15.497C28.5128 13.5069 25.8145 12.3875 23 12.3846ZM23 30.0769C21.6003 30.0769 20.2321 29.6619 19.0683 28.8842C17.9045 28.1066 16.9974 27.0014 16.4618 25.7082C15.9261 24.4151 15.786 22.9921 16.0591 21.6194C16.3321 20.2466 17.0061 18.9856 17.9959 17.9959C18.9856 17.0061 20.2466 16.3321 21.6194 16.0591C22.9921 15.786 24.4151 15.9261 25.7082 16.4618C27.0014 16.9974 28.1066 17.9045 28.8842 19.0683C29.6619 20.2321 30.0769 21.6003 30.0769 23C30.0769 24.8769 29.3313 26.677 28.0041 28.0041C26.677 29.3313 24.8769 30.0769 23 30.0769ZM33.6154 0H12.3846C9.10109 0.00351242 5.95305 1.30944 3.63125 3.63125C1.30944 5.95305 0.00351242 9.10109 0 12.3846V33.6154C0.00351242 36.8989 1.30944 40.0469 3.63125 42.3688C5.95305 44.6906 9.10109 45.9965 12.3846 46H33.6154C36.8989 45.9965 40.0469 44.6906 42.3688 42.3688C44.6906 40.0469 45.9965 36.8989 46 33.6154V12.3846C45.9965 9.10109 44.6906 5.95305 42.3688 3.63125C40.0469 1.30944 36.8989 0.00351242 33.6154 0ZM42.4615 33.6154C42.4615 35.9615 41.5295 38.2116 39.8706 39.8706C38.2116 41.5295 35.9615 42.4615 33.6154 42.4615H12.3846C10.0385 42.4615 7.78842 41.5295 6.12944 39.8706C4.47046 38.2116 3.53846 35.9615 3.53846 33.6154V12.3846C3.53846 10.0385 4.47046 7.78842 6.12944 6.12944C7.78842 4.47046 10.0385 3.53846 12.3846 3.53846H33.6154C35.9615 3.53846 38.2116 4.47046 39.8706 6.12944C41.5295 7.78842 42.4615 10.0385 42.4615 12.3846V33.6154ZM37.1538 11.5C37.1538 12.0249 36.9982 12.538 36.7066 12.9744C36.415 13.4108 36.0005 13.751 35.5156 13.9518C35.0307 14.1527 34.4971 14.2053 33.9823 14.1029C33.4675 14.0005 32.9946 13.7477 32.6234 13.3766C32.2523 13.0054 31.9995 12.5325 31.8971 12.0177C31.7947 11.5029 31.8473 10.9693 32.0482 10.4844C32.249 9.99949 32.5892 9.58502 33.0256 9.29341C33.462 9.0018 33.9751 8.84615 34.5 8.84615C35.2038 8.84615 35.8789 9.12575 36.3765 9.62345C36.8742 10.1211 37.1538 10.7962 37.1538 11.5Z" fill="#E9F4FF"/>
</svg>
