<svg width="46" height="46" viewBox="0 0 46 46" fill="none" xmlns="http://www.w3.org/2000/svg">
<path d="M42.7045 13.9431C42.571 14.0767 42.4125 14.1828 42.238 14.2551C42.0635 14.3274 41.8764 14.3647 41.6875 14.3647C41.4986 14.3647 41.3115 14.3274 41.137 14.2551C40.9625 14.1828 40.804 14.0767 40.6705 13.9431L37.375 10.6458L32.218 15.8118L38.3902 21.9841C38.66 22.2538 38.8115 22.6197 38.8115 23.0011C38.8115 23.3826 38.66 23.7484 38.3902 24.0182C38.1205 24.2879 37.7547 24.4394 37.3732 24.4394C36.9917 24.4394 36.6259 24.2879 36.3562 24.0182L35.2188 22.8682L20.125 37.9619C19.8579 38.2311 19.5402 38.4447 19.1902 38.5906C18.8402 38.7365 18.4648 38.8116 18.0856 38.8118H9.21079L5.31876 42.7039C5.17898 42.8438 5.01181 42.9534 4.82773 43.0258C4.64365 43.0982 4.44661 43.1318 4.24893 43.1246C4.05126 43.1173 3.85721 43.0694 3.67893 42.9837C3.50065 42.898 3.34197 42.7764 3.21282 42.6266C2.97764 42.341 2.85839 41.9774 2.87869 41.6079C2.89899 41.2385 3.05737 40.8902 3.32243 40.6321L7.17672 36.776V27.9012C7.1785 27.1407 7.48153 26.4119 8.01946 25.8743L10.7471 23.1467C10.8139 23.0798 10.8931 23.0268 10.9804 22.9907C11.0676 22.9545 11.1612 22.9359 11.2556 22.9359C11.3501 22.9359 11.4436 22.9545 11.5309 22.9907C11.6181 23.0268 11.6974 23.0798 11.7641 23.1467L16.9445 28.3235C17.0781 28.457 17.2367 28.563 17.4112 28.6352C17.5857 28.7075 17.7727 28.7447 17.9616 28.7447C18.1504 28.7447 18.3375 28.7075 18.512 28.6352C18.6865 28.563 18.845 28.457 18.9786 28.3235C19.1122 28.1899 19.2181 28.0313 19.2904 27.8568C19.3627 27.6823 19.3999 27.4953 19.3999 27.3064C19.3999 27.1176 19.3627 26.9305 19.2904 26.756C19.2181 26.5815 19.1122 26.423 18.9786 26.2894L13.7964 21.1072C13.7296 21.0405 13.6766 20.9612 13.6404 20.8739C13.6042 20.7867 13.5856 20.6932 13.5856 20.5987C13.5856 20.5042 13.6042 20.4107 13.6404 20.3235C13.6766 20.2362 13.7296 20.1569 13.7964 20.0902L15.773 18.1136C15.8397 18.0468 15.919 17.9938 16.0063 17.9576C16.0935 17.9214 16.187 17.9028 16.2815 17.9028C16.3759 17.9028 16.4695 17.9214 16.5567 17.9576C16.644 17.9938 16.7233 18.0468 16.79 18.1136L21.9722 23.2958C22.1058 23.4294 22.2643 23.5353 22.4388 23.6076C22.6133 23.6799 22.8003 23.7171 22.9892 23.7171C23.1781 23.7171 23.3651 23.6799 23.5396 23.6076C23.7141 23.5353 23.8727 23.4294 24.0063 23.2958C24.1398 23.1622 24.2458 23.0037 24.318 22.8292C24.3903 22.6547 24.4275 22.4677 24.4275 22.2788C24.4275 22.0899 24.3903 21.9029 24.318 21.7284C24.2458 21.5539 24.1398 21.3953 24.0063 21.2617L18.8295 16.0742C18.7626 16.0074 18.7096 15.9281 18.6734 15.8409C18.6373 15.7536 18.6187 15.6601 18.6187 15.5656C18.6187 15.4712 18.6373 15.3777 18.6734 15.2904C18.7096 15.2032 18.7626 15.1239 18.8295 15.0571L23.1186 10.7698L21.9776 9.62878C21.8414 9.49261 21.7339 9.33045 21.6616 9.15194C21.5893 8.97343 21.5535 8.78221 21.5566 8.58962C21.5596 8.39704 21.6013 8.20703 21.6791 8.03087C21.757 7.85471 21.8695 7.696 22.0099 7.56417C22.2942 7.3106 22.6655 7.1767 23.0463 7.19043C23.427 7.20415 23.7877 7.36445 24.053 7.63784L30.1875 13.7688L35.3427 8.61174L32.0437 5.31448C31.9073 5.17843 31.7997 5.01637 31.7273 4.83792C31.6548 4.65948 31.6189 4.46829 31.6218 4.27571C31.6246 4.08312 31.6661 3.89308 31.7439 3.71686C31.8216 3.54063 31.9339 3.38183 32.0742 3.24987C32.3588 2.99619 32.7304 2.86223 33.1114 2.87596C33.4925 2.88969 33.8534 3.05004 34.1191 3.32354L42.7045 11.909C42.8382 12.0425 42.9442 12.2011 43.0166 12.3756C43.0889 12.5501 43.1261 12.7371 43.1261 12.926C43.1261 13.115 43.0889 13.302 43.0166 13.4765C42.9442 13.651 42.8382 13.8096 42.7045 13.9431Z" fill="#419250"/>
</svg>
