<svg width="27" height="27" viewBox="0 0 27 27" fill="none" xmlns="http://www.w3.org/2000/svg">
<path d="M19.6875 12.375C19.6875 13.5988 19.3246 14.7951 18.6447 15.8126C17.9648 16.8301 16.9985 17.6232 15.8679 18.0915C14.7372 18.5598 13.4931 18.6824 12.2929 18.4436C11.0926 18.2049 9.99011 17.6156 9.12478 16.7502C8.25944 15.8849 7.67014 14.7824 7.43139 13.5821C7.19265 12.3819 7.31518 11.1378 7.7835 10.0071C8.25181 8.87653 9.04488 7.91017 10.0624 7.23028C11.0799 6.55039 12.2762 6.1875 13.5 6.1875C15.141 6.1875 16.7148 6.8394 17.8752 7.99978C19.0356 9.16016 19.6875 10.734 19.6875 12.375ZM27 2.25V24.75C27 25.3467 26.7629 25.919 26.341 26.341C25.919 26.7629 25.3467 27 24.75 27H2.25C1.65326 27 1.08097 26.7629 0.65901 26.341C0.237053 25.919 0 25.3467 0 24.75V2.25C0 1.65326 0.237053 1.08097 0.65901 0.65901C1.08097 0.237053 1.65326 0 2.25 0H24.75C25.3467 0 25.919 0.237053 26.341 0.65901C26.7629 1.08097 27 1.65326 27 2.25ZM24.75 24.75V2.25H2.25V24.75H2.76609C3.43575 22.6371 4.71039 20.7669 6.43219 19.3711C6.72094 19.1386 7.01906 18.922 7.32656 18.7214C7.42901 18.6545 7.55048 18.6229 7.67254 18.6312C7.79461 18.6396 7.91061 18.6876 8.00297 18.7678C9.53072 20.0867 11.4817 20.8123 13.5 20.8123C15.5183 20.8123 17.4693 20.0867 18.997 18.7678C19.0894 18.6876 19.2054 18.6396 19.3275 18.6312C19.4495 18.6229 19.571 18.6545 19.6734 18.7214C19.9809 18.923 20.2791 19.1395 20.5678 19.3711C22.2896 20.7669 23.5642 22.6371 24.2339 24.75H24.75Z" fill="white"/>
</svg>
