<svg width="65" height="101" viewBox="0 0 65 101" fill="none" xmlns="http://www.w3.org/2000/svg">
<mask id="mask0_568_1042" style="mask-type:luminance" maskUnits="userSpaceOnUse" x="13" y="9" width="52" height="92">
<path d="M13.3623 9.17285H64.6366V101H13.3623V9.17285Z" fill="white"/>
</mask>
<g mask="url(#mask0_568_1042)">
<path d="M56.313 9.26257H21.6864C17.0869 9.26257 13.3428 13.0054 13.3428 17.6068V92.6246C13.3428 97.2254 17.0856 100.969 21.6864 100.969H56.313C60.9131 100.969 64.6572 97.2254 64.6572 92.6246V17.6068C64.6572 13.0054 60.9131 9.26257 56.313 9.26257ZM61.5179 92.6246C61.5179 95.4949 59.1832 97.8296 56.313 97.8296H21.6864C18.8161 97.8296 16.482 95.4949 16.482 92.6246V17.6068C16.482 14.7359 18.8161 12.4018 21.6864 12.4018H56.313C59.1832 12.4018 61.5179 14.7359 61.5179 17.6068V92.6246Z" fill="white"/>
</g>
<path d="M40.2969 16.6624H37.7015C36.834 16.6624 36.1318 17.3645 36.1318 18.232C36.1318 19.0995 36.834 19.8016 37.7015 19.8016H40.2969C41.1644 19.8016 41.8666 19.0995 41.8666 18.232C41.8666 17.3645 41.1644 16.6624 40.2969 16.6624Z" fill="white"/>
<mask id="mask1_568_1042" style="mask-type:luminance" maskUnits="userSpaceOnUse" x="28" y="37" width="11" height="13">
<path d="M28.0527 37.8937H38.31V49.8764H28.0527V37.8937Z" fill="white"/>
</mask>
<g mask="url(#mask1_568_1042)">
<path d="M33.542 49.8681C33.8142 49.8681 34.0896 49.8414 34.3644 49.7867C37.0737 49.2474 38.7444 46.1667 38.0957 42.9047C37.5125 39.9734 35.2548 37.8937 32.8361 37.8937C32.5632 37.8937 32.2885 37.9204 32.0144 37.9744C29.3044 38.5138 27.6337 41.5952 28.2824 44.8572C28.8656 47.7884 31.1234 49.8681 33.542 49.8681Z" fill="white"/>
</g>
<path d="M27.7125 58.2709C29.8876 57.0148 30.4257 53.8742 28.9139 51.2559C27.8257 49.3708 25.9718 48.2705 24.2069 48.2705C23.5201 48.2705 22.8472 48.4365 22.2373 48.7882C20.0622 50.0443 19.5241 53.1855 21.0359 55.8038C22.1241 57.6889 23.9786 58.7892 25.7435 58.7892C26.4297 58.7892 27.1032 58.6226 27.7125 58.2709Z" fill="white"/>
<mask id="mask2_568_1042" style="mask-type:luminance" maskUnits="userSpaceOnUse" x="40" y="37" width="11" height="13">
<path d="M40.1016 37.8937H50.3588V49.8764H40.1016V37.8937Z" fill="white"/>
</mask>
<g mask="url(#mask2_568_1042)">
<path d="M44.0687 49.7867C44.3434 49.8414 44.6182 49.8681 44.8904 49.8681C47.309 49.8681 49.5668 47.7884 50.15 44.8572C50.7994 41.5952 49.1286 38.5138 46.4187 37.9744C46.1445 37.9204 45.8692 37.8937 45.597 37.8937C43.1783 37.8937 40.9205 39.9734 40.3373 42.9047C39.688 46.1667 41.3587 49.2474 44.0687 49.7867Z" fill="white"/>
</g>
<path d="M55.8252 48.7882C55.2159 48.4365 54.543 48.2705 53.8561 48.2705C52.0913 48.2705 50.2373 49.3708 49.1492 51.2559C47.6374 53.8742 48.1755 57.0148 50.3506 58.2709C50.9598 58.6226 51.6333 58.7892 52.3196 58.7892C54.0845 58.7892 55.9384 57.6889 57.0272 55.8038C58.539 53.1855 58.0009 50.0443 55.8252 48.7882Z" fill="white"/>
<mask id="mask3_568_1042" style="mask-type:luminance" maskUnits="userSpaceOnUse" x="25" y="50" width="28" height="23">
<path d="M25.6826 50.0393H52.3797V72.4415H25.6826V50.0393Z" fill="white"/>
</mask>
<g mask="url(#mask3_568_1042)">
<path d="M48.0862 58.8096C47.2187 58.0146 46.3799 57.2151 45.7528 56.3266C43.8353 53.6116 43.0727 50.0596 39.0316 50.0596C35.299 50.0589 34.2331 53.3667 32.5738 56.1231C30.503 59.5626 25.9365 60.6686 25.7209 65.1962C25.532 69.1641 28.6929 72.4408 32.6195 72.4414C34.6655 72.4414 36.3789 71.3265 38.4707 71.1682C38.6239 71.1567 38.776 71.151 38.9254 71.151C41.229 71.151 43.0848 72.4408 45.4424 72.4414C49.369 72.4414 52.5306 69.1648 52.3417 65.1962C52.2087 62.4194 50.0699 60.6259 48.0862 58.8096Z" fill="white"/>
</g>
<mask id="mask4_568_1042" style="mask-type:luminance" maskUnits="userSpaceOnUse" x="11" y="0" width="11" height="33">
<path d="M11.1191 0H21.5392V32.5959H11.1191V0Z" fill="white"/>
</mask>
<g mask="url(#mask4_568_1042)">
<path fill-rule="evenodd" clip-rule="evenodd" d="M21.3987 2.55738C21.3987 1.14547 20.252 -0.0012207 18.8395 -0.0012207H13.721C12.3085 -0.0012207 11.1611 1.14547 11.1611 2.55738V30.0023C11.1611 31.4149 12.3085 32.5609 13.721 32.5609H18.8395C20.252 32.5609 21.3987 31.4149 21.3987 30.0023V2.55738Z" fill="white"/>
</g>
<mask id="mask5_568_1042" style="mask-type:luminance" maskUnits="userSpaceOnUse" x="0" y="11" width="33" height="11">
<path d="M0 11.1267H32.5965V21.5468H0V11.1267Z" fill="white"/>
</mask>
<g mask="url(#mask5_568_1042)">
<path fill-rule="evenodd" clip-rule="evenodd" d="M2.55664 11.161C1.1441 11.161 -0.00195312 12.3077 -0.00195312 13.7202V18.8393C-0.00195312 20.2519 1.1441 21.3986 2.55664 21.3986H30.0016C31.4142 21.3986 32.5602 20.2519 32.5602 18.8393V13.7202C32.5602 12.3077 31.4142 11.161 30.0016 11.161H2.55664Z" fill="white"/>
</g>
</svg>
