<svg width="64" height="66" viewBox="0 0 64 66" fill="none" xmlns="http://www.w3.org/2000/svg">
<rect width="64" height="66" fill="#004AAD"/>
<path d="M58 26.8125V39.1875C58 40.2815 57.5786 41.3307 56.8284 42.1043C56.0783 42.8779 55.0609 43.3125 54 43.3125H42V55.6875C42 56.7815 41.5786 57.8307 40.8284 58.6043C40.0783 59.3779 39.0609 59.8125 38 59.8125H26C24.9391 59.8125 23.9217 59.3779 23.1716 58.6043C22.4214 57.8307 22 56.7815 22 55.6875V43.3125H10C8.93913 43.3125 7.92172 42.8779 7.17157 42.1043C6.42143 41.3307 6 40.2815 6 39.1875V26.8125C6 25.7185 6.42143 24.6693 7.17157 23.8957C7.92172 23.1221 8.93913 22.6875 10 22.6875H22V10.3125C22 9.21848 22.4214 8.16927 23.1716 7.39568C23.9217 6.6221 24.9391 6.1875 26 6.1875H38C39.0609 6.1875 40.0783 6.6221 40.8284 7.39568C41.5786 8.16927 42 9.21848 42 10.3125V22.6875H54C55.0609 22.6875 56.0783 23.1221 56.8284 23.8957C57.5786 24.6693 58 25.7185 58 26.8125Z" fill="white"/>
</svg>
